# xmcd
#
# Track frame offsets:
#	150
#	9933
#	20492
#	31568
#	42366
#	54697
#	61857
#	74837
#	84364
#	94195
#	103801
#	113594
#	121787
#	131970
#	141804
#	147029
#	157715
#	170560
#	181976
#	192519
#	201607
#	213227
#	224523
#	236689
#	247196
#	258822
#	270985
#	279183
#	293130
#	303557
#
# Disc length: 4187 seconds
#
# Revision: 2
# Processed by: cddbd v1.5.2PL0 Copyright (c) Steve Scherf et al.
# Submitted via: audiograbber 1.83.01
#
DISCID=b710591e
DTITLE=V-A - The Vin Story
DYEAR=2000
DGENRE=Blues
TTITLE0=Huey And Jerry - Little Chickee Wah Wah
TTITLE1=Elton Anderson - Shed So Many Tears
TTITLE2=Elton Anderson - Roll On Train
TTITLE3=Jesse Allen - Baby Say You Will
TTITLE4=Handsome Earl - Everybody Got To Cry (Take 4)
TTITLE5=Johnny Angel - Teenage Wedding (Take 1)
TTITLE6=Albert Scott - Hey, Hey, Baby Come Home
TTITLE7=Frankie Lee Sims - She Like To Boogie Real Low (Blue Light Boogie)
TTITLE8=Harry Lee - Everytime I See You
TTITLE9=Harry Lee - You Don't Know
TTITLE10=Bobby Woods - Love Is My Business
TTITLE11=Jimmie Lee - Look What Love Will Do
TTITLE12=Jimmie Lee - I Ain't Worried About Tomorrow
TTITLE13=Bobby Webb - Angel Face
TTITLE14=Bobby Webb - I Ain't Worried No More
TTITLE15=Morgus And The Ghouls - Morgus The Magnificent
TTITLE16=The Phaetons - I Love My Baby
TTITLE17=The Dick Poulton Trio - Susie
TTITLE18=The Dick Poulton Trio - Capital City Bounce
TTITLE19=Ray Washington - I Know
TTITLE20=Calvin Spears - Baby Come On Home
TTITLE21=Dicky Williams - Tee Na Na
TTITLE22=Stella Johnson - The Things I Used To Do
TTITLE23=Stella Johnson - Well I Done Got Over
TTITLE24=Ray And Lamar - The Party Went Wild
TTITLE25=Huey "Piano" Smith - I Didn't Do It
TTITLE26=Danny Ray - Love Me (Unedited Version)
TTITLE27=Jimmy Clanton - What Am I Living For?
TTITLE28=The Ends - Row, Row My Boat
TTITLE29=Jimmy Clanton - Hearbreak Hotel
EXTD=Mur13
EXTT0=
EXTT1=
EXTT2=
EXTT3=
EXTT4=
EXTT5=
EXTT6=
EXTT7=
EXTT8=
EXTT9=
EXTT10=
EXTT11=
EXTT12=
EXTT13=
EXTT14=
EXTT15=
EXTT16=
EXTT17=
EXTT18=
EXTT19=
EXTT20=
EXTT21=
EXTT22=
EXTT23=
EXTT24=
EXTT25=
EXTT26=
EXTT27=
EXTT28=
EXTT29=
PLAYORDER=
